HIERARCHY
ROOT hip
{
  OFFSET 0 0 0
  CHANNELS 6 Xposition Yposition Zposition Zrotation Yrotation Xrotation
  JOINT abdomen
  {
    OFFSET 0 20.6881 -0.73152
    CHANNELS 3 Zrotation Xrotation Yrotation
    JOINT chest
    {
      OFFSET 0 11.7043 -0.48768
      CHANNELS 3 Zrotation Xrotation Yrotation
      JOINT neck
      {
        OFFSET 0 22.1894 -2.19456
        CHANNELS 3 Zrotation Xrotation Yrotation
        JOINT head
        {
          OFFSET -0.24384 7.07133 1.2192
          CHANNELS 3 Zrotation Xrotation Yrotation
          JOINT leftEye
          {
            OFFSET 4.14528 8.04674 8.04672
            CHANNELS 3 Zrotation Xrotation Yrotation
            End Site
            {
              OFFSET 1 0 0
            }
          }
          JOINT rightEye
          {
            OFFSET -3.6576 8.04674 8.04672
            CHANNELS 3 Zrotation Xrotation Yrotation
            End Site
            {
              OFFSET 1 0 0
            }
          }
        }
      }
      JOINT rCollar
      {
        OFFSET -2.68224 19.2634 -4.8768
        CHANNELS 3 Zrotation Xrotation Yrotation
        JOINT rShldr
        {
          OFFSET -8.77824 -1.95073 1.46304
          CHANNELS 3 Zrotation Xrotation Yrotation
          JOINT rForeArm
          {
            OFFSET -28.1742 -1.7115 0.48768
            CHANNELS 3 Zrotation Xrotation Yrotation
            JOINT rHand
            {
              OFFSET -22.5879 0.773209 7.07136
              CHANNELS 3 Zrotation Xrotation Yrotation
              JOINT rThumb1
              {
                OFFSET -1.2192 -0.487915 3.41376
                CHANNELS 3 Zrotation Xrotation Yrotation
                JOINT rThumb2
                {
                  OFFSET -3.37035 -0.52449 3.41376
                  CHANNELS 3 Zrotation Xrotation Yrotation
                  End Site
                  {
                    OFFSET -1.78271 -1.18214 1.43049
                  }
                }
              }
              JOINT rIndex1
              {
                OFFSET -7.75947 0.938293 5.60832
                CHANNELS 3 Zrotation Xrotation Yrotation
                JOINT rIndex2
                {
                  OFFSET -2.54057 -0.884171 1.56538
                  CHANNELS 3 Zrotation Xrotation Yrotation
                  End Site
                  {
                    OFFSET -1.62519 -0.234802 1.16502
                  }
                }
              }
              JOINT rMid1
              {
                OFFSET -8.24714 1.18213 3.41376
                CHANNELS 3 Zrotation Xrotation Yrotation
                JOINT rMid2
                {
                  OFFSET -3.10165 -0.590103 1.0647
                  CHANNELS 3 Zrotation Xrotation Yrotation
                  End Site
                  {
                    OFFSET -2.48547 -0.328903 0.83742
                  }
                }
              }
              JOINT rRing1
              {
                OFFSET -8.82822 0.546677 1.51678
                CHANNELS 3 Zrotation Xrotation Yrotation
                JOINT rRing2
                {
                  OFFSET -2.60934 -0.819778 -0.0198488
                  CHANNELS 3 Zrotation Xrotation Yrotation
                  End Site
                  {
                    OFFSET -2.33842 -0.294052 0.168128
                  }
                }
              }
              JOINT rPinky1
              {
                OFFSET -8.27202 -0.0477905 -0.4584
                CHANNELS 3 Zrotation Xrotation Yrotation
                JOINT rPinky2
                {
                  OFFSET -1.82734 -0.647385 -0.700984
                  CHANNELS 3 Zrotation Xrotation Yrotation
                  End Site
                  {
                    OFFSET -1.69225 -0.51767 -0.607171
                  }
                }
              }
            }
          }
        }
      }
      JOINT lCollar
      {
        OFFSET 2.68224 19.2634 -4.8768
        CHANNELS 3 Zrotation Xrotation Yrotation
        JOINT lShldr
        {
          OFFSET 8.77824 -1.95073 1.46304
          CHANNELS 3 Zrotation Xrotation Yrotation
          JOINT lForeArm
          {
            OFFSET 28.1742 -1.7115 0.48768
            CHANNELS 3 Zrotation Xrotation Yrotation
            JOINT lHand
            {
              OFFSET 22.5879 0.773209 7.07136
              CHANNELS 3 Zrotation Xrotation Yrotation
              JOINT lThumb1
              {
                OFFSET 1.2192 -0.487915 3.41376
                CHANNELS 3 Zrotation Xrotation Yrotation
                JOINT lThumb2
                {
                  OFFSET 3.37035 -0.52449 3.41376
                  CHANNELS 3 Zrotation Xrotation Yrotation
                  End Site
                  {
                    OFFSET 1.78271 -1.18214 1.43049
                  }
                }
              }
              JOINT lIndex1
              {
                OFFSET 7.75947 0.938293 5.60832
                CHANNELS 3 Zrotation Xrotation Yrotation
                JOINT lIndex2
                {
                  OFFSET 2.54057 -0.884171 1.56538
                  CHANNELS 3 Zrotation Xrotation Yrotation
                  End Site
                  {
                    OFFSET 1.62519 -0.234802 1.16502
                  }
                }
              }
              JOINT lMid1
              {
                OFFSET 8.24714 1.18213 3.41376
                CHANNELS 3 Zrotation Xrotation Yrotation
                JOINT lMid2
                {
                  OFFSET 3.10165 -0.590103 1.0647
                  CHANNELS 3 Zrotation Xrotation Yrotation
                  End Site
                  {
                    OFFSET 2.48547 -0.328903 0.83742
                  }
                }
              }
              JOINT lRing1
              {
                OFFSET 8.82822 0.546677 1.51678
                CHANNELS 3 Zrotation Xrotation Yrotation
                JOINT lRing2
                {
                  OFFSET 2.60934 -0.819778 -0.0198488
                  CHANNELS 3 Zrotation Xrotation Yrotation
                  End Site
                  {
                    OFFSET 2.33842 -0.294052 0.168128
                  }
                }
              }
              JOINT lPinky1
              {
                OFFSET 8.27202 -0.0477905 -0.4584
                CHANNELS 3 Zrotation Xrotation Yrotation
                JOINT lPinky2
                {
                  OFFSET 1.82734 -0.647385 -0.700984
                  CHANNELS 3 Zrotation Xrotation Yrotation
                  End Site
                  {
                    OFFSET 1.69225 -0.51767 -0.607171
                  }
                }
              }
            }
          }
        }
      }
    }
  }
  JOINT rButtock
  {
    OFFSET -8.77824 4.35084 1.2192
    CHANNELS 3 Zrotation Xrotation Yrotation
    JOINT rThigh
    {
      OFFSET 0 -1.70687 -2.19456
      CHANNELS 3 Zrotation Xrotation Yrotation
      JOINT rShin
      {
        OFFSET 0 -36.8199 0.73152
        CHANNELS 3 Zrotation Xrotation Yrotation
        JOINT rFoot
        {
          OFFSET 0.73152 -45.1104 -5.12064
          CHANNELS 3 Zrotation Xrotation Yrotation
          End Site
          {
            OFFSET -1.1221 -3.69964 12.103
          }
        }
      }
    }
  }
  JOINT lButtock
  {
    OFFSET 8.77824 4.35084 1.2192
    CHANNELS 3 Zrotation Xrotation Yrotation
    JOINT lThigh
    {
      OFFSET 0 -1.70687 -2.19456
      CHANNELS 3 Zrotation Xrotation Yrotation
      JOINT lShin
      {
        OFFSET 0 -36.8199 0.73152
        CHANNELS 3 Zrotation Xrotation Yrotation
        JOINT lFoot
        {
          OFFSET -0.73152 -45.1104 -5.12064
          CHANNELS 3 Zrotation Xrotation Yrotation
          End Site
          {
            OFFSET 1.1221 -3.69964 12.103
          }
        }
      }
    }
  }
}
MOTION
Frames:	4
Frame Time:	0.00833333
-6.99264 85.1388 128.14 0.0 0.0 0.0 0.41059 -0.00336425 0.0117806 0.113459 -0.00539521 0.0196593 1.08652e-14 0.0 1.2424e-16 3.26752e-14 3.18055e-15 3.66509e-16 -0.0 0.0 0.0 -0.0 0.0 0.0 5.46544e-15 1.55301e-18 1.98785e-16 1.1649e-13 2.42269e-16 2.98177e-15 1.97284e-12 -5.87011e-13 -3.18055e-14 2.25225e-11 5.97398e-13 3.37139e-13 5.3135e-11 1.46752e-14 6.80639e-13 9.17511e-11 2.22639e-14 1.16488e-12 5.31403e-11 1.66979e-14 6.67916e-13 7.73091 5.47488 0.417314 5.31349e-11 1.51076e-14 6.80639e-13 2.90554 0.965183 0.102902 5.31393e-11 1.5207e-14 6.74278e-13 10.2786 0.731801 0.0259123 5.31341e-11 1.70955e-14 6.83819e-13 2.22167 -0.733487 -0.20892 5.36868e-15 1.16475e-18 -9.93923e-17 1.11777e-13 -1.30452e-16 7.95139e-16 1.96434e-12 5.85818e-13 5.08889e-14 2.25287e-11 -6.08579e-13 2.76708e-13 5.31364e-11 -5.08624e-14 6.77458e-13 9.17761e-11 -8.26944e-14 1.17362e-12 5.31328e-11 -4.77083e-14 6.9018e-13 -7.73091 5.47488 -0.417314 5.31361e-11 -5.10877e-14 6.77458e-13 -2.90554 0.965183 -0.102902 5.3119e-11 -4.97956e-14 6.80639e-13 -10.2786 0.731801 -0.0259123 5.31441e-11 -4.96962e-14 6.74278e-13 -2.22167 -0.733487 0.20892 -2.03217e-16 0.0 -3.88251e-19 0.7706 -4.17183 -0.0656814 -0.00265484 2.00555 -0.01827 -0.461825 2.16687 0.0961003 2.03217e-16 0.0 3.88251e-19 -0.143239 -2.55995 0.0260686 0.00716323 -0.914091 0.0621721 0.453778 3.47457 -0.121226
-5.50238 83.4831 122.306 -176.241 -2.4113 -153.895 0.0969766 -8.23298 -0.0920292 0.686463 3.70699 -0.183249 -0.260182 3.56645 -0.839695 2.61926 -9.25922 -1.00409 -0.0 0.0 0.0 -0.0 0.0 0.0 2.9494e-14 -8.11653e-14 -3.62471e-15 23.3349 3.08262 -1.30475 -5.36343 -2.71833 8.04911 0.00186603 -0.959071 -0.134721 -8.16812e-11 -2.69041e-10 3.41415e-10 -1.41117e-10 -4.64097e-10 5.90559e-10 -8.16763e-11 -2.69031e-10 3.41403e-10 7.73091 5.47488 0.417314 -8.16817e-11 -2.69033e-10 3.41417e-10 2.90554 0.965183 0.102902 -8.16754e-11 -2.69032e-10 3.4141e-10 10.2786 0.731801 0.0259123 -8.16816e-11 -2.69031e-10 3.41417e-10 2.22167 -0.733487 -0.20892 2.94212e-14 -8.11649e-14 -3.98424e-15 -21.2442 5.90833 -1.08198 3.78186 -1.63962 -5.9896 -0.000971105 0.691249 -0.0971232 2.33862e-11 -4.23919e-10 -6.83903e-10 3.80449e-11 -7.33775e-10 -1.18209e-09 2.33828e-11 -4.23915e-10 -6.83891e-10 -7.73091 5.47488 -0.417314 2.33861e-11 -4.23919e-10 -6.83903e-10 -2.90554 0.965183 -0.102902 2.33707e-11 -4.23917e-10 -6.839e-10 -10.2786 0.731801 -0.0259123 2.33921e-11 -4.23918e-10 -6.83908e-10 -2.22167 -0.733487 0.20892 -2.03217e-16 0.0 -3.88251e-19 2.43979 -11.1573 2.21875 0.00153562 4.11569 0.0341258 -0.523383 -2.46247 -0.749533 2.03217e-16 0.0 3.88251e-19 1.56357 -9.40636 -2.31847 0.0071664 1.04524 0.0292207 0.433987 1.77649 -0.633773
-5.50631 83.4849 122.294 -176.255 -2.3367 -153.953 -0.270418 -16.9323 -0.208713 1.32038 7.63231 -0.400156 -0.416486 7.33501 -1.74014 5.01421 -19.0763 -2.15965 -0.0 0.0 0.0 -0.0 0.0 0.0 5.7108e-14 -1.73241e-13 -7.65321e-15 48.1558 6.3371 -2.69432 -10.213 -5.41456 16.6181 -0.00107531 -1.97759 -0.27792 -2.36351e-10 -5.63953e-10 7.22778e-10 -4.08273e-10 -9.72767e-10 1.25022e-09 -2.36346e-10 -5.63934e-10 7.22767e-10 7.73091 5.47488 0.417314 -2.36352e-10 -5.63936e-10 7.22781e-10 2.90554 0.965183 0.102902 -2.36344e-10 -5.63935e-10 7.22774e-10 10.2786 0.731801 0.0259123 -2.36351e-10 -5.63934e-10 7.22778e-10 2.22167 -0.733487 -0.20892 5.70602e-14 -1.73239e-13 -8.08184e-15 -43.4529 12.1454 -2.26546 7.41166 -3.31477 -12.3409 0.000550996 1.42171 -0.199804 -1.46363e-11 -8.93558e-10 -1.45717e-09 -3.03101e-11 -1.54667e-09 -2.51865e-09 -1.46394e-11 -8.93553e-10 -1.45716e-09 -7.73091 5.47488 -0.417314 -1.46364e-11 -8.93557e-10 -1.45717e-09 -2.90554 0.965183 -0.102902 -1.46499e-11 -8.93555e-10 -1.45717e-09 -10.2786 0.731801 -0.0259123 -1.46325e-11 -8.93556e-10 -1.45718e-09 -2.22167 -0.733487 0.20892 -2.03217e-16 0.0 -3.88251e-19 4.83928 -18.4988 4.79314 0.00175978 6.34837 0.0899182 -0.73848 -7.3549 -1.65776 2.03217e-16 0.0 3.88251e-19 2.73289 -16.6007 -4.94074 0.00960579 3.11553 -0.00561125 0.379951 -0.0184812 -1.17842
-5.52567 83.4854 122.304 -176.348 -2.2558 -153.906 -0.627178 -24.6919 -0.326672 1.91261 11.1312 -0.599188 -0.462336 10.6901 -2.55864 6.77732 -27.7412 -3.35953 -0.0 0.0 0.0 -0.0 0.0 0.0 7.7551e-14 -2.43499e-13 -1.12717e-14 70.4302 9.22854 -3.95991 -13.858 -7.51258 24.3423 -0.00794681 -2.87715 -0.404615 -3.51314e-10 -8.07153e-10 1.02288e-09 -6.06853e-10 -1.39233e-09 1.76935e-09 -3.51309e-10 -8.07126e-10 1.02287e-09 7.73091 5.47488 0.417314 -3.51315e-10 -8.07128e-10 1.02289e-09 2.90554 0.965183 0.102902 -3.51305e-10 -8.07127e-10 1.02288e-09 10.2786 0.731801 0.0259123 -3.51313e-10 -8.07126e-10 1.02288e-09 2.22167 -0.733487 -0.20892 7.75263e-14 -2.43497e-13 -1.17539e-14 -63.0352 17.6991 -3.38929 10.333 -4.70425 -18.0242 0.00412107 2.07372 -0.291539 -3.61142e-11 -1.27166e-09 -2.05307e-09 -6.94176e-11 -2.20116e-09 -3.54863e-09 -3.61171e-11 -1.27165e-09 -2.05305e-09 -7.73091 5.47488 -0.417314 -3.61141e-11 -1.27166e-09 -2.05307e-09 -2.90554 0.965183 -0.102902 -3.61259e-11 -1.27165e-09 -2.05306e-09 -10.2786 0.731801 -0.0259123 -3.61119e-11 -1.27165e-09 -2.05307e-09 -2.22167 -0.733487 0.20892 -2.03217e-16 0.0 -3.88251e-19 7.59776 -24.9711 7.35193 -0.00176999 8.33595 0.140111 -1.06296 -11.711 -2.49046 2.03217e-16 0.0 3.88251e-19 3.17447 -22.9441 -7.51121 0.0139414 4.9639 -0.0368189 0.303277 -1.61869 -1.65906
